<?xml version="1.0" standalone="no"?>
<!DOCTYPE svg PUBLIC "-//W3C//DTD SVG 20010904//EN"
 "http://www.w3.org/TR/2001/REC-SVG-20010904/DTD/svg10.dtd">
<svg version="1.0" xmlns="http://www.w3.org/2000/svg"
 width="53.000000pt" height="54.000000pt" viewBox="0 0 53.000000 54.000000"
 preserveAspectRatio="xMidYMid meet">

<g transform="translate(0.000000,54.000000) scale(0.100000,-0.100000)"
fill="#000000" stroke="none">
<path d="M0 270 l0 -270 265 0 265 0 0 270 0 270 -265 0 -265 0 0 -270z m333
197 c24 -18 67 -43 96 -56 l54 -23 -6 -71 c-10 -133 -71 -250 -151 -289 -51
-24 -76 -21 -132 20 -68 50 -124 179 -124 289 l0 52 50 22 c27 12 71 37 97 55
27 19 54 34 60 34 7 0 32 -15 56 -33z"/>
<path d="M225 414 c-27 -19 -65 -40 -83 -46 -37 -14 -36 -11 -18 -99 18 -85
45 -137 91 -177 49 -44 78 -42 130 11 47 46 85 145 85 218 0 34 -4 41 -27 50
-14 5 -45 22 -67 37 -23 15 -45 31 -51 34 -5 3 -32 -10 -60 -28z m105 -125 c0
-14 -50 -99 -58 -99 -11 0 -62 97 -55 104 11 11 113 7 113 -5z"/>
</g>
</svg>
